<?xml version="1.0" encoding="UTF-8" standalone="no"?>
<svg
   xmlns:dc="http://purl.org/dc/elements/1.1/"
   xmlns:cc="http://creativecommons.org/ns#"
   xmlns:rdf="http://www.w3.org/1999/02/22-rdf-syntax-ns#"
   xmlns:svg="http://www.w3.org/2000/svg"
   xmlns="http://www.w3.org/2000/svg"
   xmlns:sodipodi="http://sodipodi.sourceforge.net/DTD/sodipodi-0.dtd"
   xmlns:inkscape="http://www.inkscape.org/namespaces/inkscape"
   version="1.1"
   viewBox="0 0 24.000001 9.7500004"
   width="32"
   height="13"
   id="svg426"
   sodipodi:docname="10.svg"
   inkscape:version="1.0.2-2 (e86c870879, 2021-01-15)">
  <metadata
     id="metadata432">
    <rdf:RDF>
      <cc:Work
         rdf:about="">
        <dc:format>image/svg+xml</dc:format>
        <dc:type
           rdf:resource="http://purl.org/dc/dcmitype/StillImage" />
        <dc:title></dc:title>
      </cc:Work>
    </rdf:RDF>
  </metadata>
  <defs
     id="defs430" />
  <sodipodi:namedview
     pagecolor="#ffffff"
     bordercolor="#666666"
     borderopacity="1"
     objecttolerance="10"
     gridtolerance="10"
     guidetolerance="10"
     inkscape:pageopacity="0"
     inkscape:pageshadow="2"
     inkscape:window-width="2560"
     inkscape:window-height="1377"
     id="namedview428"
     showgrid="false"
     inkscape:zoom="21.382909"
     inkscape:cx="0.41676972"
     inkscape:cy="20.800137"
     inkscape:window-x="1912"
     inkscape:window-y="-8"
     inkscape:window-maximized="1"
     inkscape:current-layer="svg426"
     inkscape:document-rotation="0"
     units="px" />
  <path
     d="m 6.964128,0.0067048 c 0.376489,-0.01363 0.754926,-0.0019 1.132065,-0.0039 -0.392718,1.137258 -0.791277,2.272569 -1.191784,3.406581 -0.379736,0 -0.758822,-6.49e-4 -1.137908,6.49e-4 0.401806,-1.130767 0.78933,-2.276463 1.197627,-3.403336 z"
     fill="#ff334d"
     id="path410"
     style="stroke-width:0.064912" />
  <path
     d="m 8.919277,0.0028108 c 2.077184,-0.001900001 4.154363,-0.003200001 6.232203,6.49e-4 0.47321,1.380029 0.95615,2.756163 1.4326,4.134894 0.32002,0.0019 0.64069,0.0032 0.9607,-0.0019 0.16553,0.344034 0.30509,0.700399 0.46088,1.048979 -0.79907,0.64588 -1.59814,1.29175 -2.39915,1.93568 -0.0532,-0.1519 -0.10775,-0.30379 -0.16163,-0.45504 -0.0526,-0.14994 -0.10061,-0.30054 -0.148,-0.45178 0.24407,-0.20123 0.49723,-0.39142 0.7413,-0.59265 -0.54007,-1.576065 -1.09118,-3.149532 -1.63189,-4.725595 -1.57996,6.49e-4 -3.162515,-0.0039 -4.742473,0.0026 -0.547208,1.571519 -1.087275,3.148232 -1.635133,4.719105 0.24342,0.20577 0.501121,0.39271 0.744541,0.59848 -0.05258,0.15255 -0.105158,0.30444 -0.156438,0.45698 -0.05063,0.1506 -0.101263,0.3012 -0.151894,0.45114 -0.798418,-0.64522 -1.599432,-1.2885 -2.396551,-1.93632 0.143456,-0.35183 0.295999,-0.700401 0.449191,-1.048329 0.322613,-0.0013 0.645225,0.0013 0.967838,-0.0013 0.476454,-1.378731 0.958101,-2.756164 1.433906,-4.135543 z"
     fill="#ff334d"
     id="path412"
     style="stroke-width:0.064912" />
  <path
     d="m 15.90705,0.0047578 c 0.37714,-0.0091 0.75493,-6.49e-4 1.13207,-0.0026 0.39921,1.13531 0.79452,2.272568 1.19438,3.407879 -0.37909,-0.0013 -0.75817,-6.49e-4 -1.13791,-6.49e-4 -0.39856,-1.132714 -0.80231,-2.267376 -1.18854,-3.404634 z"
     fill="#ff334d"
     id="path414"
     style="stroke-width:0.064912" />
  <path
     d="m 9.663817,0.8985958 c 1.579958,-0.0065 3.162513,-0.0019 4.742473,-0.0026 0.54071,1.576063 1.09182,3.14953 1.63189,4.725597 -0.24407,0.20123 -0.49723,0.39142 -0.7413,0.59265 0.0474,0.15124 0.0954,0.30184 0.148,0.45178 -0.36481,0.26744 -0.73286,0.52969 -1.09766,0.79712 -0.0428,-0.13891 -0.087,-0.27717 -0.13177,-0.41543 -0.71274,0.5115 -1.42158,1.0295 -2.13236,1.54425 -0.716631,-0.51085 -1.424172,-1.03599 -2.144046,-1.54166 -0.05453,0.15514 -0.100613,0.31223 -0.149297,0.46932 -0.392718,-0.27913 -0.78219,-0.56344 -1.17296,-0.84646 0.05128,-0.15254 0.103859,-0.30443 0.156438,-0.45698 -0.24342,-0.20577 -0.501121,-0.39271 -0.744541,-0.59848 0.547858,-1.570879 1.087925,-3.147592 1.635133,-4.719111 z"
     fill="#0f2139"
     id="path416"
     style="stroke-width:0.064912" />
  <path
     d="m 12.61407,2.8362188 c 0.43296,-0.107754 0.91461,-0.01363 1.20476,0.344683 0.29925,0.393366 0.32067,0.891891 0.27523,1.365099 -0.0597,0.414792 -0.24277,0.813352 -0.63743,1.002892 -0.41999,0.18694 -1.0003,0.12852 -1.31837,-0.22849 -0.283663,-0.32261 -0.358312,-0.752981 -0.35247,-1.169716 0.01168,-0.297297 0.0727,-0.627699 0.23628,-0.881505 0.13047,-0.212911 0.35312,-0.366753 0.592,-0.432963 z"
     fill="#ffffff"
     id="path418"
     style="stroke-width:0.064912" />
  <path
     d="m 10.579076,2.8466048 c 0.206421,-0.01947 0.417385,-0.0032 0.625103,-0.0071 6.49e-4,0.91461 0,1.82922 6.49e-4,2.743828 -0.22135,0.001 -0.4427,6.5e-4 -0.66405,0 -0.0013,-0.71143 0.0013,-1.423518 -0.0013,-2.135603 -0.21356,0.125929 -0.421279,0.258999 -0.636137,0.381683 6.49e-4,-0.190842 0.0013,-0.381683 6.49e-4,-0.572524 0.226543,-0.13307 0.441401,-0.289508 0.675084,-0.410244 z"
     fill="#ffffff"
     id="path420"
     style="stroke-width:0.064912" />
  <path
     d="m 12.74,3.4029008 c 0.1058,-0.07595 0.23303,-0.07789 0.35507,-0.04349 0.18564,0.09412 0.26938,0.28756 0.30443,0.482296 0.0448,0.281069 0.0435,0.575769 -0.0208,0.852943 -0.048,0.169423 -0.16098,0.368053 -0.34858,0.404403 -0.17201,0.0396 -0.32975,-0.0487 -0.41673,-0.19604 -0.14605,-0.241468 -0.1493,-0.583554 -0.13567,-0.858132 0.0162,-0.221999 0.0675,-0.503717 0.26225,-0.641979 z"
     fill="#0f2139"
     id="path422"
     style="stroke-width:0.064912" />
  <path
     d="m 9.939044,7.0503028 c 0.719874,0.50567 1.427415,1.03081 2.144046,1.54166 0.71078,-0.51475 1.41962,-1.03275 2.13236,-1.54425 0.0448,0.13826 0.0889,0.27652 0.13177,0.41543 0.0545,0.17656 0.1097,0.35248 0.16617,0.52839 -0.8101,0.58745 -1.6189,1.1775 -2.43355,1.75846 -0.812696,-0.58421 -1.624096,-1.17166 -2.437444,-1.75522 0.04803,-0.15838 0.09802,-0.31677 0.147351,-0.47515 0.04868,-0.15709 0.09477,-0.31418 0.149297,-0.46932 z"
     fill="#ff334d"
     id="path424"
     style="stroke-width:0.064912" />
</svg>
