<?xml version="1.0" encoding="UTF-8" standalone="no"?>
<svg
   xmlns:dc="http://purl.org/dc/elements/1.1/"
   xmlns:cc="http://creativecommons.org/ns#"
   xmlns:rdf="http://www.w3.org/1999/02/22-rdf-syntax-ns#"
   xmlns:svg="http://www.w3.org/2000/svg"
   xmlns="http://www.w3.org/2000/svg"
   xmlns:sodipodi="http://sodipodi.sourceforge.net/DTD/sodipodi-0.dtd"
   xmlns:inkscape="http://www.inkscape.org/namespaces/inkscape"
   version="1.1"
   viewBox="0 0 24.000001 9.7500004"
   width="32"
   height="13"
   id="svg262"
   sodipodi:docname="7.svg"
   inkscape:version="1.0.2-2 (e86c870879, 2021-01-15)">
  <metadata
     id="metadata268">
    <rdf:RDF>
      <cc:Work
         rdf:about="">
        <dc:format>image/svg+xml</dc:format>
        <dc:type
           rdf:resource="http://purl.org/dc/dcmitype/StillImage" />
        <dc:title></dc:title>
      </cc:Work>
    </rdf:RDF>
  </metadata>
  <defs
     id="defs266" />
  <sodipodi:namedview
     pagecolor="#ffffff"
     bordercolor="#666666"
     borderopacity="1"
     objecttolerance="10"
     gridtolerance="10"
     guidetolerance="10"
     inkscape:pageopacity="0"
     inkscape:pageshadow="2"
     inkscape:window-width="2560"
     inkscape:window-height="1377"
     id="namedview264"
     showgrid="false"
     inkscape:zoom="3.78"
     inkscape:cx="128.7037"
     inkscape:cy="133.33333"
     inkscape:window-x="1912"
     inkscape:window-y="-8"
     inkscape:window-maximized="1"
     inkscape:current-layer="svg262"
     inkscape:document-rotation="0"
     units="px" />
  <path
     d="m 8.9331945,0.0019222 c 2.0667865,-0.0032 4.1368135,0 6.2036035,-0.0018999984 C 15.623518,1.3798242 16.101168,2.7628682 16.575578,4.1465592 c 0.3234,0.0039 0.64615,0.0019 0.96891,6.48e-4 0.1536,0.345437 0.30071,0.693466 0.45107,1.040191 -0.79716,0.64745 -1.59691,1.29231 -2.39667,1.93717 -0.0525,-0.1536 -0.10304,-0.3072 -0.15424,-0.46015 -0.0337,-0.13934 -0.14518,-0.32729 -0.12314,-0.46339 0.20415,-0.20998 0.53079,-0.37655 0.70189,-0.60079 -0.53339,-1.560616 -1.07585,-3.1342 -1.6209,-4.690285 -1.57747,-6.48e-4 -3.156887,-0.0052 -4.7343595,0.0019 -0.519127,1.456926 -1.012979,2.928759 -1.524329,4.388925 -0.03889,0.10953 -0.07259,0.21971 -0.104992,0.33118 0.24563,0.19702 0.504869,0.38043 0.734944,0.59495 -0.05185,0.14907 -0.101751,0.29813 -0.151007,0.44784 -0.04926,0.15036 -0.100455,0.30072 -0.153599,0.44978 -0.79781,-0.64486 -1.597564,-1.28842 -2.393429,-1.93587 0.141285,-0.344789 0.297477,-0.683096 0.435522,-1.029181 0.325994,-0.02398 0.653284,-0.0032 0.980574,-0.01361 0.479593,-1.380451 0.950113,-2.768031 1.441372,-4.143945 z"
     fill="#3b56b9"
     id="path250"
     style="stroke-width:0.0648099" />
  <path
     d="m 9.6681385,0.9118532 c 1.5774725,-0.0071 3.1568895,-0.0026 4.7343595,-0.0019 0.54505,1.556085 1.08751,3.129669 1.6209,4.690285 -0.1711,0.22424 -0.49774,0.39081 -0.70189,0.60079 -0.022,0.1361 0.0894,0.32405 0.12314,0.46339 -0.36618,0.26767 -0.733,0.53403 -1.10242,0.79716 -0.0421,-0.13675 -0.0868,-0.2722 -0.13286,-0.40765 -0.71356,0.50746 -1.4135,1.03307 -2.12901,1.53794 -0.714849,-0.50617 -1.416092,-1.03437 -2.1367775,-1.53276 -0.05509,0.15295 -0.1024,0.30785 -0.151007,0.46275 -0.389507,-0.28258 -0.780959,-0.5632 -1.169819,-0.84707 0.04926,-0.14971 0.09916,-0.29877 0.151007,-0.44784 -0.230075,-0.21452 -0.489314,-0.39793 -0.734944,-0.59495 0.0324,-0.11147 0.06611,-0.22165 0.104992,-0.33118 0.51135,-1.460162 1.005202,-2.931995 1.524329,-4.388921 z"
     fill="#111e39"
     id="path252"
     style="stroke-width:0.0648099" />
  <path
     d="m 6.2247885,2.0751912 c 0.379138,-0.0013 0.758276,-6.49e-4 1.136766,-6.49e-4 -0.149711,0.448485 -0.290348,0.900858 -0.453669,1.344806 -0.377194,6.48e-4 -0.754388,-6.48e-4 -1.130933,0.0013 0.147118,-0.449133 0.297477,-0.897617 0.447836,-1.345453 z"
     fill="#3b56b9"
     id="path254"
     style="stroke-width:0.0648099" />
  <path
     d="m 16.638438,2.0745422 c 0.37914,0 0.75763,-6.48e-4 1.13677,6.49e-4 0.15036,0.447836 0.30137,0.895672 0.44784,1.345453 -0.3772,-0.0026 -0.75504,6.48e-4 -1.13223,-0.0019 -0.14129,-0.383675 -0.26119,-0.774479 -0.3934,-1.161394 -0.0194,-0.06092 -0.0395,-0.121842 -0.059,-0.182764 z"
     fill="#3b56b9"
     id="path256"
     style="stroke-width:0.0648099" />
  <path
     d="m 11.068032,3.1283512 c 0.710964,-6.48e-4 1.421926,-0.0013 2.132246,0 6.5e-4,0.152952 6.5e-4,0.305255 -0.002,0.457558 -0.57421,0.694762 -0.94428,1.628669 -1.02918,2.523049 -0.220998,0 -0.441352,0 -0.661705,-6.5e-4 0.103696,-0.86651 0.392748,-1.734959 0.881415,-2.462126 -0.440708,-6.48e-4 -0.880767,6.49e-4 -1.320826,-6.48e-4 -6.48e-4,-0.172394 -6.48e-4,-0.344788 0,-0.517183 z"
     fill="#ffffff"
     id="path258"
     style="stroke-width:0.0648099" />
  <path
     d="m 9.9435805,7.0590682 c 0.7206855,0.49839 1.4219285,1.02659 2.1367775,1.53276 0.71551,-0.50487 1.41545,-1.03048 2.12901,-1.53794 0.046,0.13545 0.0907,0.2709 0.13286,0.40765 0.0551,0.17758 0.11212,0.35516 0.16721,0.53274 -0.81077,0.58394 -1.61571,1.17695 -2.43037,1.7557 -0.810774,-0.58588 -1.622842,-1.16982 -2.4329645,-1.75635 0.04796,-0.15749 0.09721,-0.31433 0.14647,-0.47181 0.04861,-0.1549 0.09592,-0.3098 0.151007,-0.46275 z"
     fill="#3b56b9"
     id="path260"
     style="stroke-width:0.0648099" />
</svg>
