<?xml version="1.0" encoding="UTF-8" standalone="no"?>
<svg
   xmlns:dc="http://purl.org/dc/elements/1.1/"
   xmlns:cc="http://creativecommons.org/ns#"
   xmlns:rdf="http://www.w3.org/1999/02/22-rdf-syntax-ns#"
   xmlns:svg="http://www.w3.org/2000/svg"
   xmlns="http://www.w3.org/2000/svg"
   xmlns:sodipodi="http://sodipodi.sourceforge.net/DTD/sodipodi-0.dtd"
   xmlns:inkscape="http://www.inkscape.org/namespaces/inkscape"
   version="1.1"
   viewBox="0 0 24.000001 9.7500004"
   width="32"
   height="13"
   id="svg38"
   sodipodi:docname="1.svg"
   inkscape:version="1.0.2-2 (e86c870879, 2021-01-15)">
  <metadata
     id="metadata44">
    <rdf:RDF>
      <cc:Work
         rdf:about="">
        <dc:format>image/svg+xml</dc:format>
        <dc:type
           rdf:resource="http://purl.org/dc/dcmitype/StillImage" />
        <dc:title></dc:title>
      </cc:Work>
    </rdf:RDF>
  </metadata>
  <defs
     id="defs42" />
  <sodipodi:namedview
     pagecolor="#ffffff"
     bordercolor="#666666"
     borderopacity="1"
     objecttolerance="10"
     gridtolerance="10"
     guidetolerance="10"
     inkscape:pageopacity="0"
     inkscape:pageshadow="2"
     inkscape:window-width="2560"
     inkscape:window-height="1377"
     id="namedview40"
     showgrid="false"
     inkscape:zoom="22.627417"
     inkscape:cx="26.129151"
     inkscape:cy="8.3019786"
     inkscape:window-x="1912"
     inkscape:window-y="-8"
     inkscape:window-maximized="1"
     inkscape:current-layer="svg38"
     inkscape:document-rotation="0"
     units="px" />
  <path
     d="m 7.762305,0.00792052 c 0.401729,-0.0183 0.805953,-0.0017 1.208513,-0.0042 C 8.263842,1.9907385 7.598453,3.9935595 6.889814,5.9789145 6.571259,5.7052735 6.228583,5.4657335 5.895889,5.2087265 6.508047,3.4762195 7.129354,1.7320685 7.762305,0.00787852 Z"
     fill="#0088b8"
     id="path30"
     style="stroke-width:0.0831736" />
  <path
     d="m 8.970818,0.00372451 c 2.02611,-0.0058 4.052219,-8.32e-4 6.078329,-0.0025 0.68785,1.98951399 1.37819,3.97736399 2.06104,5.96770899 -1.67262,1.264248 -3.34774,2.530978 -5.03283,3.7802478 C 10.349005,8.4915915 8.614003,7.2423215 6.889814,5.9789145 7.598453,3.9935595 8.263842,1.9907385 8.970818,0.00372051 Z"
     fill="#121c39"
     id="path32"
     style="stroke-width:0.0831736" />
  <path
     d="m 15.049147,0.00205772 c 0.40422,0 0.80845,-8.31e-4 1.21267,8.32e-4 0.62048,1.73583398 1.25426,3.46834098 1.86143,5.20916498 -0.33852,0.251185 -0.67121,0.510686 -1.01306,0.757712 -0.68285,-1.990345 -1.37319,-3.978195 -2.06104,-5.96770898 z"
     fill="#0088b8"
     id="path34"
     style="stroke-width:0.0831736" />
  <path
     d="m 11.859668,2.4240787 c 0.29028,-0.02745 0.58638,-0.0025 0.87831,-0.01 0,1.358226 0,2.717283 0,4.075506 -0.3277,0 -0.65457,8.3e-4 -0.98228,-8.3e-4 -8.3e-4,-1.040502 0.003,-2.081836 -0.002,-3.12317 -0.30358,0.182151 -0.60384,0.370955 -0.907424,0.553105 -0.0075,-0.287781 -0.0075,-0.576393 -0.0033,-0.865006 0.345174,-0.198785 0.677864,-0.419195 1.016384,-0.629624 z"
     fill="#ffffff"
     id="path36"
     style="stroke-width:0.0831736" />
</svg>
