<?xml version="1.0" encoding="UTF-8" standalone="no"?>
<svg
   xmlns:dc="http://purl.org/dc/elements/1.1/"
   xmlns:cc="http://creativecommons.org/ns#"
   xmlns:rdf="http://www.w3.org/1999/02/22-rdf-syntax-ns#"
   xmlns:svg="http://www.w3.org/2000/svg"
   xmlns="http://www.w3.org/2000/svg"
   xmlns:sodipodi="http://sodipodi.sourceforge.net/DTD/sodipodi-0.dtd"
   xmlns:inkscape="http://www.inkscape.org/namespaces/inkscape"
   version="1.1"
   viewBox="0 0 24.000001 9.7500004"
   width="32"
   height="13"
   id="svg70"
   sodipodi:docname="2.svg"
   inkscape:version="1.0.2-2 (e86c870879, 2021-01-15)">
  <metadata
     id="metadata76">
    <rdf:RDF>
      <cc:Work
         rdf:about="">
        <dc:format>image/svg+xml</dc:format>
        <dc:type
           rdf:resource="http://purl.org/dc/dcmitype/StillImage" />
        <dc:title></dc:title>
      </cc:Work>
    </rdf:RDF>
  </metadata>
  <defs
     id="defs74" />
  <sodipodi:namedview
     pagecolor="#ffffff"
     bordercolor="#666666"
     borderopacity="1"
     objecttolerance="10"
     gridtolerance="10"
     guidetolerance="10"
     inkscape:pageopacity="0"
     inkscape:pageshadow="2"
     inkscape:window-width="2560"
     inkscape:window-height="1377"
     id="namedview72"
     showgrid="false"
     inkscape:zoom="21.382909"
     inkscape:cx="20.189715"
     inkscape:cy="16.134714"
     inkscape:window-x="1912"
     inkscape:window-y="-8"
     inkscape:window-maximized="1"
     inkscape:current-layer="svg70"
     inkscape:document-rotation="0"
     units="px" />
  <path
     d="M 8.5008462,0.01178 C 10.823604,-0.0103 13.186409,0.01468 15.519179,0 c 0.550653,1.519758 1.06126,3.0601219 1.601902,4.5835599 0.16019,0.35694 0.290344,0.724185 0.400475,1.095844 -0.350416,0.266418 -0.710844,0.543139 -1.071272,0.801461 0,-0.03901 0.100119,-0.07875 0.100119,-0.119225 -0.620737,-1.772193 -1.22145,-3.553952 -1.842187,-5.3246719 -1.80214,0.0015 -3.594267,-0.0066 -5.3863951,0.0037 C 8.691072,2.8150679 8.0903588,4.6056599 7.45961,6.3837389 7.1292177,6.1497039 6.8088379,5.9090449 6.4784449,5.6764819 6.6085999,5.2665519 6.7587779,4.8735489 6.92898,4.4812819 7.369503,3.2088069 7.8200379,1.93854 8.2705728,0.668273 8.3706916,0.450428 8.4107392,0.220073 8.5108581,0.011796 Z"
     fill="#8cb556"
     id="path64"
     style="stroke-width:0.0736397" />
  <path
     d="m 9.3218209,1.0406521 c 1.7921281,-0.0103 3.5842551,-0.0022 5.3863951,-0.0037 0.620737,1.77072 1.22145,3.5524788 1.842187,5.3246718 0,0.04048 -0.100119,0.08022 -0.100119,0.119225 -1.441711,1.098789 -2.893435,2.190954 -4.35517,3.269135 C 10.543271,8.6269089 9.0014405,7.5075139 7.449598,6.3837019 8.0803469,4.6056229 8.68106,2.8150311 9.311809,1.0406311 Z"
     fill="#072b39"
     id="path66"
     style="stroke-width:0.0736397" />
  <path
     d="m 12.090107,3.2411728 c 0.340404,0.03386 0.650773,0.125114 0.891058,0.377548 0.380452,0.365772 0.360428,0.9869226 0.100119,1.3894926 -0.330392,0.429065 -0.790939,0.780118 -1.181403,1.152514 0.490583,0 0.981165,0.0015 1.461736,-7.36e-4 0,0.234772 0,0.470279 0,0.705786 -0.891058,0.0015 -1.772104,0.0015 -2.663162,0 0,-0.208276 0,-0.416553 0,-0.62483 0.500594,-0.432745 1.0112,-0.858866 1.491771,-1.315162 0.200238,-0.190613 0.340404,-0.418025 0.250297,-0.707993 -0.120143,-0.3422216 -0.640761,-0.3966826 -0.861022,-0.1184896 -0.100119,0.09494 -0.100119,0.2193156 -0.120143,0.3267656 -0.270321,-0.0037 -0.540642,-0.0037 -0.820974,0 0,-0.267889 0.100118,-0.5122276 0.240285,-0.7278636 0.310368,-0.384172 0.790939,-0.487942 1.261497,-0.457032 z"
     fill="#ffffff"
     id="path68"
     style="stroke-width:0.0736397" />
</svg>
