<?xml version="1.0" encoding="UTF-8" standalone="no"?>
<svg
   xmlns:dc="http://purl.org/dc/elements/1.1/"
   xmlns:cc="http://creativecommons.org/ns#"
   xmlns:rdf="http://www.w3.org/1999/02/22-rdf-syntax-ns#"
   xmlns:svg="http://www.w3.org/2000/svg"
   xmlns="http://www.w3.org/2000/svg"
   xmlns:sodipodi="http://sodipodi.sourceforge.net/DTD/sodipodi-0.dtd"
   xmlns:inkscape="http://www.inkscape.org/namespaces/inkscape"
   version="1.1"
   viewBox="0 0 24.000001 9.7500004"
   width="32"
   height="13"
   id="svg374"
   sodipodi:docname="9.svg"
   inkscape:version="1.0.2-2 (e86c870879, 2021-01-15)">
  <metadata
     id="metadata380">
    <rdf:RDF>
      <cc:Work
         rdf:about="">
        <dc:format>image/svg+xml</dc:format>
        <dc:type
           rdf:resource="http://purl.org/dc/dcmitype/StillImage" />
        <dc:title></dc:title>
      </cc:Work>
    </rdf:RDF>
  </metadata>
  <defs
     id="defs378" />
  <sodipodi:namedview
     pagecolor="#ffffff"
     bordercolor="#666666"
     borderopacity="1"
     objecttolerance="10"
     gridtolerance="10"
     guidetolerance="10"
     inkscape:pageopacity="0"
     inkscape:pageshadow="2"
     inkscape:window-width="2560"
     inkscape:window-height="1377"
     id="namedview376"
     showgrid="false"
     inkscape:zoom="60.48"
     inkscape:cx="17.232234"
     inkscape:cy="6.0912373"
     inkscape:window-x="1912"
     inkscape:window-y="-8"
     inkscape:window-maximized="1"
     inkscape:current-layer="svg374"
     inkscape:document-rotation="0"
     units="px" />
  <path
     d="m 6.9624048,0.009735 c 0.377122,-0.01882 0.756841,-0.0039 1.134612,-0.0058 -0.151238,0.449172 -0.313511,0.894448 -0.466697,1.34297 -0.380367,-0.0013 -0.762682,0.01233 -1.1424,-0.0078 0.168763,-0.438786 0.305722,-0.891202 0.474485,-1.329339 z"
     fill="#ff8900"
     id="path356"
     style="stroke-width:0.0649091" />
  <path
     d="M 8.8811181,0.01363006 C 8.9765381,-6.499419e-4 9.0758451,6.500581e-4 9.1719101,5.8102541e-8 11.153586,0.00840006 13.138503,-0.00779994 15.119533,0.00840006 c 0.46345,1.37931904 0.95546,2.75084894 1.42541,4.12822094 0.32844,0.01298 0.65817,-0.01428 0.98532,0.01753 0.13371,0.348562 0.29339,0.688038 0.43813,1.032058 -0.79968,0.6452 -1.59871,1.28974 -2.39774,1.93559 -0.0539,-0.15254 -0.1084,-0.30442 -0.16162,-0.45631 -0.0513,-0.1467 -0.0993,-0.29469 -0.15059,-0.44138 0.23627,-0.21161 0.49525,-0.39725 0.74126,-0.59782 -0.53355,-1.579238 -1.09047,-3.152635 -1.62987,-4.72992694 -1.58183,-6.49e-4 -3.163021,-6.49e-4 -4.7448569,6.49e-4 C 9.1375091,2.315275 8.6441991,3.731593 8.1547841,5.149859 c -0.05712,0.15838 -0.113591,0.31741 -0.155782,0.48098 0.246655,0.19537 0.499152,0.38426 0.737368,0.58937 -0.05322,0.15059 -0.106451,0.30118 -0.156431,0.45307 -0.04933,0.15124 -0.101907,0.30118 -0.155782,0.45112 -0.794488,-0.6478 -1.594817,-1.2891 -2.39255,-1.93365 0.147343,-0.3544 0.289494,-0.714 0.462153,-1.05672 0.318054,0.01039 0.637407,0.0052 0.956111,0.0039 0.470591,-1.36439 0.955463,-2.7618839 1.431247,-4.12432594 z"
     fill="#ff8900"
     id="path358"
     style="stroke-width:0.0649091" />
  <path
     d="m 15.902993,0.003893 c 0.37971,-0.0026 0.75943,-0.0039 1.1385,0 0.15643,0.445277 0.30572,0.89315 0.47059,1.335181 -0.37972,0.02012 -0.76203,0.0065 -1.1424,0.0078 -0.15318,-0.448522 -0.31546,-0.893798 -0.46669,-1.34297 z"
     fill="#ff8900"
     id="path360"
     style="stroke-width:0.0649091" />
  <path
     d="m 9.6256241,0.897043 c 1.5818359,-0.0013 3.1630269,-0.0013 4.7448569,-6.49e-4 0.5394,1.577292 1.09632,3.150689 1.62987,4.729925 -0.24601,0.20057 -0.50499,0.38621 -0.74126,0.59782 0.0513,0.14669 0.0993,0.29468 0.15059,0.44138 -0.36609,0.26677 -0.73283,0.53096 -1.09956,0.79643 -0.0428,-0.13825 -0.087,-0.27586 -0.13177,-0.41347 -0.71335,0.51149 -1.42086,1.03141 -2.13356,1.54419 -0.715302,-0.51148 -1.421514,-1.0379 -2.1433029,-1.54029 -0.05323,0.15513 -0.09931,0.31091 -0.147993,0.46734 -0.393349,-0.27911 -0.782155,-0.56341 -1.172908,-0.84641 0.04998,-0.15189 0.103206,-0.30248 0.156431,-0.45307 -0.238216,-0.20511 -0.490713,-0.394 -0.737368,-0.58937 0.04219,-0.16357 0.09866,-0.3226 0.155782,-0.48098 0.489415,-1.418264 0.982725,-2.834582 1.470192,-4.252846 z"
     fill="#0f2139"
     id="path362"
     style="stroke-width:0.0649091" />
  <path
     d="m 6.2393178,2.071898 c 0.37842,-0.02207 0.760735,-0.0039 1.139804,-0.0078 -0.162922,0.447873 -0.309617,0.902237 -0.477731,1.348163 -0.377771,-0.0045 -0.756192,-0.0019 -1.133963,-0.0019 0.15708,-0.445925 0.309617,-0.895096 0.47189,-1.338426 z"
     fill="#ff8900"
     id="path364"
     style="stroke-width:0.0649091" />
  <path
     d="m 16.620883,2.064109 c 0.38167,-0.0013 0.76333,-0.0052 1.14435,0.0019 0.14864,0.45047 0.31416,0.895746 0.46734,1.344268 -0.37777,0 -0.75619,-0.0026 -1.13396,0.0019 -0.16811,-0.446575 -0.31546,-0.90029 -0.47773,-1.348163 z"
     fill="#ff8900"
     id="path366"
     style="stroke-width:0.0649091" />
  <path
     d="m 13.070834,3.447972 c 0.21549,0.386858 0.20706,0.797084 0.18823,1.226782 -0.0286,0.373875 -0.16227,0.785405 -0.43099,1.056075 -0.47384,0.5011 -1.419568,0.47903 -1.844722,-0.074 -0.132415,-0.16162 -0.18629,-0.34986 -0.22913,-0.55108 0.253795,-0.001 0.50759,-0.002 0.761384,6.5e-4 0.08763,0.36479 0.556268,0.41802 0.790598,0.16617 0.17395,-0.20901 0.19797,-0.523169 0.21809,-0.783455 -0.27976,0.523815 -1.02102,0.620535 -1.458508,0.244708 -0.379718,-0.321301 -0.421909,-0.932095 -0.194727,-1.350759 0.443329,-0.769823 1.805125,-0.736719 2.199775,0.06491 z"
     fill="#ffffff"
     id="path368"
     style="stroke-width:0.0649091" />
  <path
     d="m 11.820612,3.455112 c 0.162922,-0.05193 0.350513,-0.04544 0.482273,0.07594 0.20382,0.165519 0.23497,0.469293 0.0857,0.682195 -0.15578,0.23627 -0.51278,0.273917 -0.717893,0.08049 -0.251198,-0.233024 -0.18564,-0.719193 0.14994,-0.838626 z"
     fill="#0f2139"
     id="path370"
     style="stroke-width:0.0649091" />
  <path
     d="m 9.8599476,7.052379 c 0.7217884,0.50239 1.4280004,1.02881 2.1433024,1.54029 0.7127,-0.51278 1.42021,-1.0327 2.13356,-1.54419 0.0448,0.13761 0.0889,0.27522 0.13177,0.41347 0.0552,0.17721 0.11099,0.35376 0.16681,0.53031 -0.81201,0.58548 -1.61883,1.18135 -2.43799,1.75774 -0.808114,-0.58937 -1.622724,-1.17031 -2.4327894,-1.75644 0.04868,-0.15838 0.09736,-0.31611 0.147344,-0.47384 0.04868,-0.15643 0.09477,-0.31221 0.147993,-0.46734 z"
     fill="#ff8900"
     id="path372"
     style="stroke-width:0.0649091" />
</svg>
