<?xml version="1.0" encoding="UTF-8" standalone="no"?>
<svg
   xmlns:dc="http://purl.org/dc/elements/1.1/"
   xmlns:cc="http://creativecommons.org/ns#"
   xmlns:rdf="http://www.w3.org/1999/02/22-rdf-syntax-ns#"
   xmlns:svg="http://www.w3.org/2000/svg"
   xmlns="http://www.w3.org/2000/svg"
   xmlns:sodipodi="http://sodipodi.sourceforge.net/DTD/sodipodi-0.dtd"
   xmlns:inkscape="http://www.inkscape.org/namespaces/inkscape"
   version="1.1"
   viewBox="0 0 24.000001 9.7500004"
   width="32"
   height="13"
   id="svg174"
   sodipodi:docname="5.svg"
   inkscape:version="1.0.2-2 (e86c870879, 2021-01-15)">
  <metadata
     id="metadata180">
    <rdf:RDF>
      <cc:Work
         rdf:about="">
        <dc:format>image/svg+xml</dc:format>
        <dc:type
           rdf:resource="http://purl.org/dc/dcmitype/StillImage" />
        <dc:title></dc:title>
      </cc:Work>
    </rdf:RDF>
  </metadata>
  <defs
     id="defs178" />
  <sodipodi:namedview
     pagecolor="#ffffff"
     bordercolor="#666666"
     borderopacity="1"
     objecttolerance="10"
     gridtolerance="10"
     guidetolerance="10"
     inkscape:pageopacity="0"
     inkscape:pageshadow="2"
     inkscape:window-width="2560"
     inkscape:window-height="1377"
     id="namedview176"
     showgrid="false"
     inkscape:zoom="3.78"
     inkscape:cx="128.7037"
     inkscape:cy="133.33333"
     inkscape:window-x="1912"
     inkscape:window-y="-8"
     inkscape:window-maximized="1"
     inkscape:current-layer="svg174"
     inkscape:document-rotation="0"
     units="px" />
  <path
     d="m 8.8975495,0.0026 c 2.0661395,-0.0045 4.1368195,0 6.2035995,-0.0026 0.48673,1.379802 0.96437,2.762846 1.43878,4.146537 0.32276,0.0032 0.64551,0.0026 0.96761,0 0.15555,0.345437 0.30137,0.694114 0.45238,1.040841 -0.79781,0.64745 -1.59692,1.29231 -2.39667,1.93717 -0.0518,-0.15295 -0.10305,-0.30655 -0.15555,-0.4595 -0.0506,-0.14712 -0.10175,-0.29489 -0.15295,-0.442 0.23786,-0.21712 0.50552,-0.39534 0.74337,-0.61181 -0.55671,-1.561916 -1.08038,-3.136148 -1.63386,-4.699363 -1.57617,6.48e-4 -3.154293,-0.0052 -4.7304685,0.0026 -0.550884,1.567752 -1.093343,3.141336 -1.629969,4.714273 0.249518,0.19378 0.499036,0.38562 0.738833,0.58977 -0.05055,0.15295 -0.1024,0.30525 -0.154248,0.45756 -0.0512,0.14971 -0.102399,0.29942 -0.154895,0.44913 -0.79781,-0.64551 -1.596916,-1.28972 -2.39343,-1.93652 0.141934,-0.344789 0.298126,-0.683744 0.435523,-1.030477 0.325993,-0.02139 0.653283,-0.0032 0.980573,-0.01231 0.478945,-1.380451 0.950761,-2.767383 1.441372,-4.143297 z"
     fill="#00b6a5"
     id="path166"
     style="stroke-width:0.0648099" />
  <path
     d="m 9.6328205,0.914475 c 1.5761755,-0.0078 3.1542985,-0.0019 4.7304685,-0.0026 0.55348,1.563215 1.07715,3.137447 1.63386,4.699363 -0.23785,0.21647 -0.50551,0.39469 -0.74337,0.61181 0.0512,0.14711 0.1024,0.29488 0.15295,0.442 -0.36552,0.26702 -0.7317,0.53338 -1.10047,0.79651 -0.0421,-0.13934 -0.0855,-0.27738 -0.13027,-0.41543 -0.71355,0.5107 -1.41804,1.03437 -2.13224,1.54377 -0.713558,-0.51135 -1.419338,-1.03501 -2.1387275,-1.53794 -0.0525,0.15555 -0.102399,0.31239 -0.150359,0.46923 -0.388859,-0.28193 -0.779015,-0.56255 -1.167226,-0.84512 0.05185,-0.15231 0.103696,-0.30461 0.154248,-0.45756 -0.239797,-0.20415 -0.489315,-0.39599 -0.738833,-0.58977 0.536626,-1.572935 1.079085,-3.146519 1.629969,-4.714271 z"
     fill="#0e2239"
     id="path168"
     style="stroke-width:0.0648099" />
  <path
     d="m 11.023997,2.961172 c 0.672074,-0.0026 1.348044,-6.48e-4 2.020124,0 6.5e-4,0.206743 6.5e-4,0.413487 0,0.620231 -0.46857,6.48e-4 -0.9378,0 -1.40702,0 -0.0143,0.244981 -0.046,0.488018 -0.0765,0.731703 0.35386,-0.43293 1.06548,-0.387563 1.41286,0.02592 0.3921,0.456262 0.31044,1.250192 -0.19702,1.591092 -0.49386,0.34414 -1.28713,0.30655 -1.722651,-0.1212 -0.174987,-0.17434 -0.239149,-0.39015 -0.274146,-0.6293 0.251462,-0.004 0.502925,-0.004 0.755037,-0.002 0.0382,0.37655 0.50227,0.49321 0.77188,0.28128 0.27869,-0.22943 0.21258,-0.766708 -0.15424,-0.8717 -0.24434,-0.0862 -0.45562,0.02722 -0.62347,0.202207 -0.21647,-0.04601 -0.434231,-0.08425 -0.651344,-0.125083 0.01296,-0.3409 0.04213,-0.680504 0.07518,-1.020108 0.02333,-0.224242 0.0091,-0.465983 0.07129,-0.683096 z"
     fill="#ffffff"
     id="path170"
     style="stroke-width:0.0648099" />
  <path
     d="m 9.863868,7.051968 c 0.71939,0.50293 1.42517,1.02659 2.138728,1.53794 0.7142,-0.5094 1.41869,-1.03307 2.13224,-1.54377 0.0447,0.13805 0.0881,0.27609 0.13027,0.41543 0.0544,0.17758 0.11083,0.35516 0.16656,0.53274 -0.81142,0.58394 -1.61571,1.17695 -2.43102,1.7557 -0.810119,-0.58588 -1.622187,-1.16982 -2.432311,-1.75635 0.04796,-0.15749 0.09786,-0.31433 0.145174,-0.47246 0.04796,-0.15684 0.09786,-0.31368 0.150359,-0.46923 z"
     fill="#00b6a5"
     id="path172"
     style="stroke-width:0.0648099" />
</svg>
