<?xml version="1.0" encoding="UTF-8" standalone="no"?>
<svg
   xmlns:dc="http://purl.org/dc/elements/1.1/"
   xmlns:cc="http://creativecommons.org/ns#"
   xmlns:rdf="http://www.w3.org/1999/02/22-rdf-syntax-ns#"
   xmlns:svg="http://www.w3.org/2000/svg"
   xmlns="http://www.w3.org/2000/svg"
   xmlns:sodipodi="http://sodipodi.sourceforge.net/DTD/sodipodi-0.dtd"
   xmlns:inkscape="http://www.inkscape.org/namespaces/inkscape"
   version="1.1"
   viewBox="0 0 24.000001 9.7500004"
   width="32"
   height="13"
   id="svg102"
   sodipodi:docname="3.svg"
   inkscape:version="1.0.2-2 (e86c870879, 2021-01-15)">
  <metadata
     id="metadata108">
    <rdf:RDF>
      <cc:Work
         rdf:about="">
        <dc:format>image/svg+xml</dc:format>
        <dc:type
           rdf:resource="http://purl.org/dc/dcmitype/StillImage" />
        <dc:title></dc:title>
      </cc:Work>
    </rdf:RDF>
  </metadata>
  <defs
     id="defs106" />
  <sodipodi:namedview
     pagecolor="#ffffff"
     bordercolor="#666666"
     borderopacity="1"
     objecttolerance="10"
     gridtolerance="10"
     guidetolerance="10"
     inkscape:pageopacity="0"
     inkscape:pageshadow="2"
     inkscape:window-width="2560"
     inkscape:window-height="1377"
     id="namedview104"
     showgrid="false"
     inkscape:zoom="30.24"
     inkscape:cx="15.375691"
     inkscape:cy="7.9945234"
     inkscape:window-x="1912"
     inkscape:window-y="-8"
     inkscape:window-maximized="1"
     inkscape:current-layer="svg102"
     inkscape:document-rotation="0"
     units="px" />
  <path
     d="M 8.965722,0.01216 C 9.026502,0.00516 9.087925,6.4e-4 9.149986,0 c 1.968683,0.0032 3.942485,6.4e-4 5.911165,0.0013 0.38772,1.104945 0.76841,2.212449 1.15421,3.318034 0.10621,0.31479 0.21498,0.62829 0.3455,0.93476 0.19066,0.508 0.35573,1.02561 0.54255,1.53489 -0.18234,0.18555 -0.38388,0.34678 -0.59182,0.50161 -1.41269,1.11006 -2.84969,2.24252 -4.25151,3.3641 -0.0518,0.0378 -0.10621,0.0697 -0.16315,0.0953 -0.28855,-0.17083 -0.53808,-0.4082 -0.810633,-0.60462 C 10.65417,8.646334 9.99517,8.179914 9.370719,7.669984 9.00539,7.391674 8.64198,7.113994 8.261936,6.855514 7.808313,6.490184 7.342535,6.138934 6.89659,5.764644 7.123081,5.137634 7.32526,4.504224 7.586301,3.892574 7.965066,2.818975 8.337433,1.742822 8.717477,0.669867 8.798097,0.452333 8.856315,0.217525 8.965722,0.012147 Z"
     fill="#478040"
     id="path96"
     style="stroke-width:0.0639806" />
  <path
     d="m 9.681984,0.911087 c 0.228411,-0.03199 0.466418,-0.01408 0.696749,-0.01535 1.325034,0.0013 2.650074,-6.4e-4 3.975114,0.0013 0.47537,1.363426 0.94435,2.729417 1.41717,4.094757 0.0601,0.18043 0.15227,0.37365 0.16251,0.56431 -0.13692,0.1446 -0.31159,0.25657 -0.46578,0.38261 -1.07743,0.89764 -2.24572,1.69164 -3.37433,2.52531 C 10.74918,7.490244 9.400469,6.520934 8.066474,5.533074 8.57576,4.053204 9.094003,2.574607 9.59753,1.093457 9.6212,1.029477 9.64935,0.969335 9.68198,0.911112 Z"
     fill="#082837"
     id="path98"
     style="stroke-width:0.0639806" />
  <path
     d="m 12.592027,2.932874 c 0.35893,0.16187 0.59822,0.51184 0.52336,0.91364 -0.0704,0.31607 -0.3295,0.45234 -0.62317,0.51824 0.23928,0.0429 0.4581,0.0889 0.61485,0.2924 0.25144,0.34165 0.14204,0.83814 -0.19258,1.08127 -0.41779,0.30838 -1.03265,0.35573 -1.511222,0.17339 -0.385803,-0.1638 -0.609735,-0.43891 -0.648124,-0.8631 0.247605,-0.003 0.49521,-0.001 0.742815,-0.001 0.06334,0.10557 0.106211,0.23609 0.227131,0.28919 0.22969,0.11069 0.55663,0.0819 0.68715,-0.16315 0.0889,-0.16635 0.005,-0.34933 -0.14779,-0.43955 -0.17595,-0.10173 -0.43443,-0.0672 -0.63277,-0.0742 10e-4,-0.17659 6.4e-4,-0.35382 -10e-4,-0.5304 0.19834,-0.0102 0.47793,0.0141 0.6398,-0.11773 0.17531,-0.1318 0.1606,-0.42931 -0.0333,-0.53871 -0.28535,-0.15996 -0.61613,-0.0294 -0.702502,0.29111 -0.238008,0.002 -0.475376,0.003 -0.712744,6.4e-4 0.03007,-0.22138 0.07038,-0.421 0.232889,-0.58607 0.370448,-0.399234 1.058237,-0.463854 1.537457,-0.24568 z"
     fill="#ffffff"
     id="path100"
     style="stroke-width:0.0639806" />
</svg>
