<?xml version="1.0" encoding="UTF-8" standalone="no"?>
<svg
   xmlns:dc="http://purl.org/dc/elements/1.1/"
   xmlns:cc="http://creativecommons.org/ns#"
   xmlns:rdf="http://www.w3.org/1999/02/22-rdf-syntax-ns#"
   xmlns:svg="http://www.w3.org/2000/svg"
   xmlns="http://www.w3.org/2000/svg"
   xmlns:sodipodi="http://sodipodi.sourceforge.net/DTD/sodipodi-0.dtd"
   xmlns:inkscape="http://www.inkscape.org/namespaces/inkscape"
   version="1.1"
   viewBox="0 0 24.000001 9.7500004"
   width="32"
   height="13"
   id="svg138"
   sodipodi:docname="4.svg"
   inkscape:version="1.0.2-2 (e86c870879, 2021-01-15)">
  <metadata
     id="metadata144">
    <rdf:RDF>
      <cc:Work
         rdf:about="">
        <dc:format>image/svg+xml</dc:format>
        <dc:type
           rdf:resource="http://purl.org/dc/dcmitype/StillImage" />
        <dc:title></dc:title>
      </cc:Work>
    </rdf:RDF>
  </metadata>
  <defs
     id="defs142" />
  <sodipodi:namedview
     pagecolor="#ffffff"
     bordercolor="#666666"
     borderopacity="1"
     objecttolerance="10"
     gridtolerance="10"
     guidetolerance="10"
     inkscape:pageopacity="0"
     inkscape:pageshadow="2"
     inkscape:window-width="2560"
     inkscape:window-height="1377"
     id="namedview140"
     showgrid="false"
     inkscape:zoom="3.78"
     inkscape:cx="128.7037"
     inkscape:cy="133.33333"
     inkscape:window-x="1912"
     inkscape:window-y="-8"
     inkscape:window-maximized="1"
     inkscape:current-layer="svg138"
     inkscape:document-rotation="0"
     units="px" />
  <path
     d="m 8.9278469,4.5e-4 c 2.0305871,0.0019 4.0618111,0.0025 6.0924011,0 0.48059,1.353937 0.94845,2.713602 1.41441,4.07327 0.31572,0.003 0.63145,0.004 0.94654,-0.003 0.17187,0.36029 0.31637,0.73458 0.48314,1.09741 C 15.943878,6.68948 14.030418,8.2191 12.118228,9.75 11.351188,9.19047 10.612789,8.59085 9.8482949,8.0275 9.3466959,7.63857 8.8527349,7.23245 8.3250369,6.87917 7.6401109,6.33174 6.9481839,5.79322 6.2492549,5.26361 6.1805049,5.21461 6.1130339,5.1484 6.1429509,5.05673 6.2664419,4.72891 6.4255779,4.41446 6.5490689,4.086 6.8698889,4.0618 7.1926179,4.083 7.5140749,4.072 7.9825739,2.713602 8.4504369,1.35521 8.9278469,0 Z"
     fill="#00b650"
     id="path130"
     style="stroke-width:0.0636548" />
  <path
     d="m 9.672728,0.903711 c 1.541086,-0.0191 3.100626,-0.0045 4.644256,-0.007 0.49268,1.402314 0.972,2.809719 1.46024,4.213939 0.0509,0.13877 0.098,0.27818 0.13112,0.42267 -0.33418,0.24444 -0.64864,0.51242 -0.97073,0.7715 -0.93191,0.73075 -1.90901,1.40359 -2.86001,2.10888 C 10.772682,7.4767 9.474761,6.52825 8.175568,5.58297 8.087088,5.51167 8.073083,5.51037 8.112548,5.39774 8.632608,3.90694 9.144392,2.386869 9.672727,0.903713 Z"
     fill="#0a2739"
     id="path132"
     style="stroke-width:0.0636548" />
  <path
     d="m 12.927879,2.843272 c 0,0.662646 -0.003,1.325928 10e-4,1.989208 0.12158,-0.001 0.24316,-0.002 0.36474,-0.002 0.001,0.19861 0.001,0.39785 0.001,0.59709 -0.12286,0 -0.24507,6.3e-4 -0.36793,10e-4 0,0.16932 0,0.33864 0,0.50796 -0.24188,10e-4 -0.48377,10e-4 -0.72566,0 0,-0.16996 6.4e-4,-0.33928 0,-0.5086 -0.49651,0 -0.993015,6.4e-4 -1.489522,0 0.02101,-0.22979 -0.0662,-0.55189 0.08657,-0.73903 0.394023,-0.61172 0.780412,-1.228537 1.171252,-1.842169 0.31891,-0.0076 0.63845,0.0019 0.958,-0.0038 z"
     fill="#ffffff"
     id="path134"
     style="stroke-width:0.0636548" />
  <path
     d="m 12.38088,3.62495 c 0.003,0.4023 -6.3e-4,0.8046 0.002,1.2069 -0.25525,-0.001 -0.51051,-6.4e-4 -0.76576,-0.001 0.25398,-0.40229 0.50223,-0.80841 0.76385,-1.20562 z"
     fill="#0a2739"
     id="path136"
     style="stroke-width:0.0636548" />
</svg>
