<?xml version="1.0" encoding="UTF-8" standalone="no"?>
<svg
   xmlns:dc="http://purl.org/dc/elements/1.1/"
   xmlns:cc="http://creativecommons.org/ns#"
   xmlns:rdf="http://www.w3.org/1999/02/22-rdf-syntax-ns#"
   xmlns:svg="http://www.w3.org/2000/svg"
   xmlns="http://www.w3.org/2000/svg"
   xmlns:sodipodi="http://sodipodi.sourceforge.net/DTD/sodipodi-0.dtd"
   xmlns:inkscape="http://www.inkscape.org/namespaces/inkscape"
   version="1.1"
   viewBox="0 0 24.000001 9.7500004"
   width="32"
   height="13"
   id="svg218"
   sodipodi:docname="6.svg"
   inkscape:version="1.0.2-2 (e86c870879, 2021-01-15)">
  <metadata
     id="metadata224">
    <rdf:RDF>
      <cc:Work
         rdf:about="">
        <dc:format>image/svg+xml</dc:format>
        <dc:type
           rdf:resource="http://purl.org/dc/dcmitype/StillImage" />
        <dc:title></dc:title>
      </cc:Work>
    </rdf:RDF>
  </metadata>
  <defs
     id="defs222" />
  <sodipodi:namedview
     pagecolor="#ffffff"
     bordercolor="#666666"
     borderopacity="1"
     objecttolerance="10"
     gridtolerance="10"
     guidetolerance="10"
     inkscape:pageopacity="0"
     inkscape:pageshadow="2"
     inkscape:window-width="2560"
     inkscape:window-height="1377"
     id="namedview220"
     showgrid="false"
     inkscape:zoom="42.765818"
     inkscape:cx="19.545353"
     inkscape:cy="9.4518477"
     inkscape:window-x="1912"
     inkscape:window-y="-8"
     inkscape:window-maximized="1"
     inkscape:current-layer="svg218"
     inkscape:document-rotation="0"
     units="px" />
  <path
     d="m 9.046292,0.0025962 c 2.066788,-0.0045 4.137464,0 6.204251,-0.00259999844 C 15.737263,1.3797982 16.214913,2.7634902 16.689973,4.1471812 c 0.3221,0.0026 0.64486,0.0019 0.96761,0 0.15425,0.344789 0.30137,0.693466 0.45172,1.040193 -0.79781,0.64745 -1.59691,1.29231 -2.39667,1.93717 -0.0518,-0.15295 -0.10304,-0.30655 -0.15489,-0.46015 -0.0331,-0.1374 -0.14582,-0.32988 -0.12249,-0.46274 0.22424,-0.20934 0.48348,-0.38108 0.71485,-0.58264 -0.55153,-1.567104 -1.08232,-3.142632 -1.63386,-4.709735 -1.577469,6.48e-4 -3.156886,-0.0045 -4.734359,0.0026 -0.552828,1.567751 -1.093343,3.14328 -1.631913,4.716865 0.248222,0.19378 0.497092,0.38691 0.738833,0.58977 -0.05055,0.1523 -0.101103,0.30461 -0.152303,0.45691 -0.0499,0.15036 -0.101104,0.30007 -0.1536,0.44978 -0.797809,-0.64551 -1.596915,-1.28972 -2.393429,-1.93652 0.141934,-0.345437 0.298125,-0.684393 0.436171,-1.030477 0.325993,-0.02074 0.652635,-0.0032 0.979925,-0.01167 0.478945,-1.381099 0.950761,-2.768031 1.440724,-4.143945 z"
     fill="#00a7b7"
     id="path206"
     style="stroke-width:0.0648099" />
  <path
     d="m 9.781884,0.9118792 c 1.577473,-0.0071 3.15689,-0.0019 4.734359,-0.0026 0.55154,1.567103 1.08233,3.142631 1.63386,4.709735 -0.23137,0.20156 -0.49061,0.3733 -0.71485,0.58264 -0.0233,0.13286 0.0894,0.32534 0.12249,0.46274 -0.36618,0.26767 -0.733,0.53403 -1.10177,0.79716 -0.0428,-0.13675 -0.0868,-0.27414 -0.13156,-0.41089 -0.712264,0.5107 -1.416099,1.03307 -2.129656,1.54183 -0.714853,-0.50811 -1.417393,-1.03502 -2.138079,-1.53535 -0.05444,0.1536 -0.101103,0.30849 -0.150359,0.46469 -0.389507,-0.28258 -0.780959,-0.5632 -1.169818,-0.84642 0.0512,-0.1523 0.101751,-0.30461 0.152303,-0.45691 -0.241741,-0.20286 -0.490611,-0.39599 -0.738833,-0.58977 0.53857,-1.573583 1.079085,-3.149112 1.631913,-4.716863 z"
     fill="#0f2139"
     id="path208"
     style="stroke-width:0.0648099" />
  <path
     d="m 6.338535,2.0745682 c 0.379138,-6.48e-4 0.758275,0 1.137413,0 -0.150359,0.448485 -0.291644,0.900858 -0.453669,1.344806 -0.377193,6.48e-4 -0.754387,-6.48e-4 -1.131581,0.0013 0.147119,-0.449133 0.297478,-0.897617 0.447837,-1.346102 z"
     fill="#00a7b7"
     id="path210"
     style="stroke-width:0.0648099" />
  <path
     d="m 12.969883,2.9948692 c 0.01685,0.171746 0.02722,0.343492 0.03305,0.515887 -0.317568,0.02074 -0.688281,0.06999 -0.943632,0.274146 -0.137397,0.09916 -0.208688,0.235908 -0.290996,0.378489 0.374601,-0.121842 0.889191,-0.08749 1.184724,0.198319 0.36164,0.373953 0.316921,1.020104 -0.03305,1.386934 -0.331178,0.33571 -0.871693,0.3746 -1.290365,0.19637 -0.355806,-0.16138 -0.528848,-0.53662 -0.574863,-0.90669 -0.05768,-0.471167 0.03241,-1.021403 0.337659,-1.399245 0.243685,-0.311087 0.590418,-0.488666 0.969556,-0.578104 0.199615,-0.04796 0.403118,-0.06351 0.607917,-0.06611 z"
     fill="#ffffff"
     id="path212"
     style="stroke-width:0.0648099" />
  <path
     d="m 12.368447,4.6883522 c 0.19443,0.111473 0.200263,0.388212 0.138045,0.576162 -0.08814,0.23072 -0.367472,0.34414 -0.5794,0.19702 -0.235908,-0.15814 -0.225539,-0.53209 -0.232668,-0.782256 0.221002,-0.05444 0.465335,-0.116658 0.674023,0.0091 z"
     fill="#0f2139"
     id="path214"
     style="stroke-width:0.0648099" />
  <path
     d="m 10.056678,7.0571542 c 0.720686,0.50033 1.423226,1.02724 2.138079,1.53535 0.713557,-0.50876 1.417392,-1.03113 2.129656,-1.54183 0.0447,0.13675 0.0888,0.27414 0.13156,0.41089 0.0557,0.17758 0.11212,0.35516 0.16721,0.53274 -0.81077,0.58394 -1.61571,1.1763 -2.430371,1.7557 -0.810771,-0.58588 -1.622839,-1.16982 -2.432963,-1.75635 0.04796,-0.15749 0.09722,-0.31433 0.14647,-0.47181 0.04926,-0.1562 0.09592,-0.31109 0.150359,-0.46469 z"
     fill="#00a7b7"
     id="path216"
     style="stroke-width:0.0648099" />
</svg>
