<?xml version="1.0" encoding="UTF-8" standalone="no"?>
<svg
   xmlns:dc="http://purl.org/dc/elements/1.1/"
   xmlns:cc="http://creativecommons.org/ns#"
   xmlns:rdf="http://www.w3.org/1999/02/22-rdf-syntax-ns#"
   xmlns:svg="http://www.w3.org/2000/svg"
   xmlns="http://www.w3.org/2000/svg"
   xmlns:sodipodi="http://sodipodi.sourceforge.net/DTD/sodipodi-0.dtd"
   xmlns:inkscape="http://www.inkscape.org/namespaces/inkscape"
   version="1.1"
   viewBox="0 0 24.000001 9.7500004"
   width="32"
   height="13"
   id="svg318"
   sodipodi:docname="8.svg"
   inkscape:version="1.0.2-2 (e86c870879, 2021-01-15)">
  <metadata
     id="metadata324">
    <rdf:RDF>
      <cc:Work
         rdf:about="">
        <dc:format>image/svg+xml</dc:format>
        <dc:type
           rdf:resource="http://purl.org/dc/dcmitype/StillImage" />
        <dc:title></dc:title>
      </cc:Work>
    </rdf:RDF>
  </metadata>
  <defs
     id="defs322" />
  <sodipodi:namedview
     pagecolor="#ffffff"
     bordercolor="#666666"
     borderopacity="1"
     objecttolerance="10"
     gridtolerance="10"
     guidetolerance="10"
     inkscape:pageopacity="0"
     inkscape:pageshadow="2"
     inkscape:window-width="2560"
     inkscape:window-height="1377"
     id="namedview320"
     showgrid="false"
     inkscape:zoom="3.78"
     inkscape:cx="128.7037"
     inkscape:cy="133.33333"
     inkscape:window-x="1912"
     inkscape:window-y="-8"
     inkscape:window-maximized="1"
     inkscape:current-layer="svg318"
     inkscape:document-rotation="0"
     units="px" />
  <path
     d="M 8.9316965,2.015625e-7 C 10.999269,6.4820156e-4 13.06749,0.0013002 15.13506,2.015625e-7 15.62571,1.3779502 16.10015,2.7630292 16.57588,4.1468122 c 0.32083,0.0039 0.64102,0.0045 0.9612,-0.0019 0.16592,0.340923 0.30527,0.695456 0.45823,1.042858 -0.79656,0.64749 -1.59637,1.29239 -2.39553,1.93665 -0.0525,-0.15296 -0.10435,-0.30528 -0.15685,-0.45824 -0.0506,-0.14842 -0.10111,-0.29685 -0.15166,-0.44527 0.23981,-0.2113 0.50036,-0.39667 0.74341,-0.60407 -0.55416,-1.56526 -1.08239,-3.139597 -1.63396,-4.705509 -1.57693,0 -3.155805,-0.0045 -4.7320865,0.0026 -0.549624,1.567856 -1.092119,3.140896 -1.629429,4.713289 0.248239,0.19444 0.497125,0.38759 0.738234,0.59046 -0.04926,0.15361 -0.10111,0.30657 -0.15361,0.45953 -0.0512,0.14972 -0.102406,0.29879 -0.154906,0.44787 -0.797863,-0.64491 -1.597022,-1.28851 -2.39294,-1.93601 0.139999,-0.344806 0.296849,-0.682488 0.434255,-1.027947 0.326016,-0.02787 0.653975,-0.0026 0.981287,-0.01491 0.478329,-1.382487 0.952769,-2.766918 1.440172,-4.146163998438 z"
     fill="#ba56a3"
     id="path300"
     style="stroke-width:0.0648142" />
  <path
     d="m 15.86163,0.0012962 c 0.37852,-0.00129999844 0.75703,-0.00129999844 1.13554,0 0.15167,0.447866 0.30139,0.89638 0.44852,1.344895 -0.37657,-0.0013 -0.75314,0 -1.12971,-6.48e-4 -0.14519,-0.382404 -0.26315,-0.775178 -0.39602,-1.162119 -0.0194,-0.06028 -0.0389,-0.121203 -0.0583,-0.182128 z"
     fill="#ba56a3"
     id="path302"
     style="stroke-width:0.0648142" />
  <path
     d="m 9.6686335,0.9138802 c 1.5762815,-0.0071 3.1551565,-0.0026 4.7320865,-0.0026 0.55157,1.565912 1.0798,3.140249 1.63396,4.70551 -0.24305,0.2074 -0.5036,0.39277 -0.74341,0.60407 0.0506,0.14842 0.10111,0.29685 0.15166,0.44527 -0.36555,0.26574 -0.73046,0.53342 -1.0999,0.79462 -0.0415,-0.13935 -0.0855,-0.2774 -0.13157,-0.41546 -0.70971,0.51463 -1.41813,1.03185 -2.1285,1.54582 -0.716195,-0.51009 -1.422021,-1.03638 -2.1427545,-1.53934 -0.0512,0.15621 -0.10111,0.31306 -0.149073,0.46991 -0.388237,-0.28194 -0.778419,-0.56259 -1.167304,-0.84453 0.0525,-0.15296 0.104351,-0.30592 0.15361,-0.45953 -0.241109,-0.20287 -0.489995,-0.39602 -0.738234,-0.59046 0.53731,-1.572391 1.079805,-3.145431 1.629429,-4.713287 z"
     fill="#151738"
     id="path304"
     style="stroke-width:0.0648142" />
  <path
     d="m 6.2263515,2.0772952 c 0.377867,-0.0065 0.756382,-0.0013 1.134897,-0.0019 -0.149721,0.448514 -0.28972,0.901565 -0.454996,1.344246 -0.376571,6.48e-4 -0.753141,-6.48e-4 -1.129712,6.48e-4 0.148425,-0.447866 0.292961,-0.897676 0.449811,-1.34295 z"
     fill="#ba56a3"
     id="path306"
     style="stroke-width:0.0648142" />
  <path
     d="m 16.6394,2.0753512 c 0.37852,-0.0013 0.75703,-0.0013 1.13555,0 0.15166,0.447866 0.30138,0.89638 0.44851,1.344894 -0.37657,-0.0013 -0.75314,0 -1.12971,-6.48e-4 -0.14519,-0.382404 -0.26315,-0.775178 -0.39602,-1.162119 -0.0194,-0.06028 -0.0389,-0.121202 -0.0583,-0.182127 z"
     fill="#ba56a3"
     id="path308"
     style="stroke-width:0.0648142" />
  <path
     d="m 12.4187,2.7131222 c 0.34287,0.101759 0.6786,0.347404 0.70777,0.731104 0.0447,0.395367 -0.24435,0.705827 -0.61833,0.779067 0.21908,0.02787 0.41935,0.127684 0.56259,0.298146 0.23657,0.27546 0.23139,0.694811 -0.0104,0.965081 -0.34676,0.37981 -0.93073,0.46407 -1.415542,0.38759 -0.373978,-0.0609 -0.771937,-0.25926 -0.911288,-0.63518 -0.0538,-0.18926 -0.04796,-0.424531 0.05185,-0.598881 0.130925,-0.239813 0.37333,-0.370738 0.635827,-0.416108 -0.174998,-0.05574 -0.335089,-0.110832 -0.450459,-0.261849 -0.250182,-0.298145 -0.199627,-0.743419 0.0875,-0.997491 0.349996,-0.315645 0.921009,-0.375274 1.360452,-0.251479 z"
     fill="#ffffff"
     id="path310"
     style="stroke-width:0.0648142" />
  <path
     d="m 11.75565,3.2711732 c 0.0875,-0.05444 0.215184,-0.04472 0.3137,-0.03759 0.23139,0.03565 0.36555,0.276757 0.28389,0.494533 -0.0836,0.254071 -0.459535,0.324719 -0.651385,0.155554 -0.199628,-0.144536 -0.173054,-0.508144 0.0538,-0.612494 z"
     fill="#151738"
     id="path312"
     style="stroke-width:0.0648142" />
  <path
     d="m 11.757595,4.5590312 c 0.292315,-0.107592 0.690275,0.02009 0.672775,0.383699 0.0181,0.41611 -0.581387,0.53407 -0.820551,0.26055 -0.197684,-0.20805 -0.107592,-0.52888 0.147776,-0.644249 z"
     fill="#151738"
     id="path314"
     style="stroke-width:0.0648142" />
  <path
     d="m 9.9402055,7.0517802 c 0.7207335,0.50296 1.4265595,1.02925 2.1427545,1.53934 0.71037,-0.51397 1.41879,-1.03119 2.1285,-1.54582 0.046,0.13806 0.0901,0.27611 0.13157,0.41546 0.0545,0.17824 0.11084,0.35583 0.16593,0.53342 -0.81018,0.58528 -1.61517,1.17833 -2.43053,1.75582 -0.810182,-0.58592 -1.623601,-1.1686 -2.4324815,-1.75646 0.04861,-0.1575 0.09722,-0.31435 0.145184,-0.47185 0.04796,-0.15685 0.09787,-0.3137 0.149073,-0.46991 z"
     fill="#ba56a3"
     id="path316"
     style="stroke-width:0.0648142" />
</svg>
